# xmcd CD database file
#
# Track frame offsets:
#	150
#	13051
#	25766
#	38069
#	50346
#	63909
#	75855
#	89141
#	101938
#	115864
#	127714
#	139723
#	151468
#	162103
#	174096
#	186946
#	200777
#	213708
#	225109
#	237139
#
# Disc length: 3305 seconds
#
# Revision: 0
# Processed by: cddbd v1.5.1PL0 Copyright (c) Steve Scherf et al.
# Submitted via: CDex 1.51
#
DISCID=fc0ce714
DTITLE=Roy Rogers - The best of Roy Rogers
DYEAR=2000
DGENRE=Country
TTITLE0=Tumbling Tumbleweeds
TTITLE1=Don't fence me in
TTITLE2=On the old spanish trail
TTITLE3=One more ride
TTITLE4=Rock me to sleep in my saddle
TTITLE5=A gay ranchero
TTITLE6=Cowboy night herd song
TTITLE7=Way out there
TTITLE8=There's a roundup in the sky
TTITLE9=Ride ranger ride
TTITLE10=Dust
TTITLE11=Hold that critter down
TTITLE12=You waited too long
TTITLE13=New worried mind
TTITLE14=Blue shadows on the trail
TTITLE15=The hills of old Wyomin'
TTITLE16=When I lived under the stars
TTITLE17=Hi - Yo Silver
TTITLE18=When the blacksheep gets the blues
TTITLE19=My chickasay girl
EXTD=YEAR: 2000
EXTT0=
EXTT1=
EXTT2=
EXTT3=
EXTT4=
EXTT5=
EXTT6=
EXTT7=
EXTT8=
EXTT9=
EXTT10=
EXTT11=
EXTT12=
EXTT13=
EXTT14=
EXTT15=
EXTT16=
EXTT17=
EXTT18=
EXTT19=
PLAYORDER=
